<?xml version="1.0" encoding="UTF-8"?><svg id="a" xmlns="http://www.w3.org/2000/svg" viewBox="0 0 640.486 649.316"><rect x="65.209" y="300.654" width="155.554" height="48.007" transform="translate(467.644 181.672) rotate(90)" fill="#1e1e1e"/><rect x="430.091" y="300.654" width="155.554" height="48.007" transform="translate(832.526 -183.211) rotate(90)" fill="#1e1e1e"/><circle cx="499.116" cy="145.785" r="103.873" fill="#00a2ff"/><path d="M499.116,14.138c-72.707,0-131.647,58.94-131.647,131.647,0,72.707,58.94,131.647,131.647,131.647,72.706,0,131.647-58.94,131.647-131.647,0-72.706-58.94-131.647-131.647-131.647ZM499.116,231.286c-47.221,0-85.501-38.28-85.501-85.501,0-47.221,38.28-85.501,85.501-85.501,47.221,0,85.501,38.28,85.501,85.501,0,47.221-38.28,85.501-85.501,85.501Z" fill="#1e1e1e"/><circle cx="141.37" cy="503.531" r="103.873" fill="#00a2ff"/><path d="M141.37,371.884c-72.707,0-131.647,58.94-131.647,131.647,0,72.707,58.94,131.647,131.647,131.647,72.706,0,131.647-58.94,131.647-131.647,0-72.706-58.94-131.647-131.647-131.647ZM141.37,589.032c-47.221,0-85.501-38.28-85.501-85.501,0-47.221,38.28-85.501,85.501-85.501,47.221,0,85.501,38.28,85.501,85.501,0,47.221-38.28,85.501-85.501,85.501Z" fill="#1e1e1e"/><rect x="186.315" y="300.654" width="267.857" height="48.007" transform="translate(776.257 327.779) rotate(135)" fill="#1e1e1e"/><circle cx="141.31" cy="145.725" r="103.873" fill="#fd0"/><path d="M141.31,14.078c-72.707,0-131.647,58.94-131.647,131.647,0,72.707,58.94,131.647,131.647,131.647,72.706,0,131.647-58.94,131.647-131.647,0-72.706-58.94-131.647-131.647-131.647ZM141.31,231.226c-47.221,0-85.501-38.28-85.501-85.501,0-47.221,38.28-85.501,85.501-85.501,47.221,0,85.501,38.28,85.501,85.501,0,47.221-38.28,85.501-85.501,85.501Z" fill="#1e1e1e"/><circle cx="498.717" cy="503.132" r="103.873" fill="#00d42e"/><path d="M499.177,371.944c-72.707,0-131.647,58.94-131.647,131.647,0,72.707,58.94,131.647,131.647,131.647,72.706,0,131.647-58.94,131.647-131.647,0-72.706-58.94-131.647-131.647-131.647ZM499.177,589.092c-47.221,0-85.501-38.28-85.501-85.501,0-47.221,38.28-85.501,85.501-85.501,47.221,0,85.501,38.28,85.501,85.501,0,47.221-38.28,85.501-85.501,85.501Z" fill="#1e1e1e"/></svg>